<svg width="24" height="24" viewBox="0 0 24 24" fill="none" xmlns="http://www.w3.org/2000/svg">
    <path d="M12 2C10.895 2 10 2.895 10 3.99999H5C4.448 3.99999 4 4.44799 4 4.99999C4 5.55199 4.448 5.99999 5 5.99999H19C19.552 5.99999 20 5.55199 20 4.99999C20 4.44799 19.552 3.99999 19 3.99999H14C14 2.895 13.105 2 12 2Z" fill="white"/>
    <path d="M5 8V18C5 20.19 6.805 21.969 9 21.969L15.031 22C17.226 22 19 20.195 19 18V8H5ZM10 11C10.552 11 11 11.448 11 12V18C11 18.552 10.552 19 10 19C9.448 19 9 18.552 9 18V12C9 11.448 9.448 11 10 11ZM14 11C14.552 11 15 11.448 15 12V18C15 18.552 14.552 19 14 19C13.448 19 13 18.552 13 18V12C13 11.448 13.448 11 14 11Z" fill="white" fill-opacity="0.6"/>
</svg>